<svg width="27" height="39" viewBox="0 0 27 39" fill="none" xmlns="http://www.w3.org/2000/svg">
<path d="M9.08333 13.2708L9.10417 13.2479M17.4167 13.2708L17.4375 13.2479M9.08333 21.6042L9.10417 21.5812M17.4167 21.6042L17.4375 21.5812M9.08333 29.9375L9.10417 29.9146M17.4167 29.9375L17.4375 29.9146M0.75 37V6.16667C0.75 5.83515 0.881696 5.5172 1.11612 5.28278C1.35054 5.04836 1.66848 4.91667 2 4.91667H13.25V2C13.25 1.66848 13.3817 1.35054 13.6161 1.11612C13.8505 0.881696 14.1685 0.75 14.5 0.75H24.5C24.8315 0.75 25.1495 0.881696 25.3839 1.11612C25.6183 1.35054 25.75 1.66848 25.75 2V37C25.75 37.3315 25.6183 37.6495 25.3839 37.8839C25.1495 38.1183 24.8315 38.25 24.5 38.25H2C1.66848 38.25 1.35054 38.1183 1.11612 37.8839C0.881696 37.6495 0.75 37.3315 0.75 37Z" stroke="#475467" stroke-width="1.5" stroke-linecap="round" stroke-linejoin="round"/>
</svg>
