<svg width="256" height="300" viewBox="0 0 256 300" fill="none" xmlns="http://www.w3.org/2000/svg">
<rect width="96.0818" height="97.3204" rx="20" transform="matrix(0.690913 0.722938 -0.783518 0.621369 152.703 170.066)" fill="url(#paint0_linear_2026_241607)"/>
<rect width="96.0818" height="97.3204" rx="20" transform="matrix(0.690913 0.722938 -0.783518 0.621369 76.25 85.8438)" fill="url(#paint1_linear_2026_241607)"/>
<rect width="96.0818" height="97.3204" rx="20" transform="matrix(0.690913 0.722938 -0.783518 0.621369 152.703 0)" fill="#BAE9EB" fill-opacity="0.8"/>
<path fill-rule="evenodd" clip-rule="evenodd" d="M217.94 98.2707C226.594 91.4075 239.796 92.3177 247.428 100.303L255.077 108.307C253.807 110.936 253.094 113.885 253.094 117V184C253.094 186.608 253.593 189.099 254.501 191.383L239.412 203.35C230.758 210.213 217.555 209.303 209.923 201.318L171.176 160.775C163.544 152.789 164.373 140.751 173.028 133.888L217.94 98.2707Z" fill="#BAE9EB" fill-opacity="0.8"/>
<defs>
<linearGradient id="paint0_linear_2026_241607" x1="0" y1="48.6602" x2="96.0818" y2="48.6602" gradientUnits="userSpaceOnUse">
<stop stop-color="#BAE9EB"/>
<stop offset="1" stop-color="#F1FEFF"/>
</linearGradient>
<linearGradient id="paint1_linear_2026_241607" x1="0" y1="48.6602" x2="96.0818" y2="48.6602" gradientUnits="userSpaceOnUse">
<stop stop-color="#BAE9EB"/>
<stop offset="1" stop-color="#F1FEFF"/>
</linearGradient>
</defs>
</svg>
