<svg width="24" height="22" viewBox="0 0 24 22" fill="none" xmlns="http://www.w3.org/2000/svg">
<g filter="url(#filter0_d_6532_27701)">
<path d="M7.572 1.062C6.99 1.749 6.87 2.754 6.628 4.766L6.538 5.523C6.287 7.611 6.162 8.655 6.758 9.327C7.355 10 8.406 10 10.508 10H11.25V11.75H7C6.679 11.75 6.378 11.836 6.12 11.987L5.84 11.15C5.78224 10.9652 5.71379 10.7839 5.635 10.607C5.57776 10.4789 5.5116 10.3549 5.437 10.236C5.152 9.767 4.781 9.36 4.179 9.096C3.613 8.846 2.905 8.75 2 8.75C1.80109 8.75 1.61032 8.82902 1.46967 8.96967C1.32902 9.11032 1.25 9.30109 1.25 9.5C1.25 9.69891 1.32902 9.88968 1.46967 10.0303C1.61032 10.171 1.80109 10.25 2 10.25C2.827 10.25 3.29 10.342 3.574 10.468C3.823 10.578 3.984 10.733 4.155 11.015C4.185 11.065 4.198 11.086 4.211 11.111C4.224 11.135 4.242 11.169 4.274 11.238C4.324 11.348 4.349 11.418 4.424 11.642L5.288 14.237C5.3207 14.3307 5.37054 14.4175 5.435 14.493C5.63537 15.0105 5.98758 15.4552 6.44537 15.7688C6.90316 16.0824 7.44511 16.2501 8 16.25H11.25V17.416C10.6791 17.5764 10.1563 17.8741 9.72709 18.2833C9.2979 18.6924 8.97548 19.2005 8.788 19.763C8.72817 19.9509 8.74474 20.1548 8.83413 20.3306C8.92352 20.5063 9.07853 20.6398 9.26562 20.7021C9.4527 20.7645 9.65681 20.7506 9.83374 20.6635C10.0107 20.5765 10.1462 20.4232 10.211 20.237C10.3862 19.7121 10.7589 19.276 11.25 19.021V20C11.25 20.1989 11.329 20.3897 11.4697 20.5303C11.6103 20.671 11.8011 20.75 12 20.75C12.1989 20.75 12.3897 20.671 12.5303 20.5303C12.671 20.3897 12.75 20.1989 12.75 20V19.02C13.2413 19.2752 13.614 19.7117 13.789 20.237C13.8573 20.4186 13.9933 20.5666 14.1684 20.6501C14.3435 20.7335 14.5441 20.7459 14.7282 20.6845C14.9122 20.6232 15.0653 20.4929 15.1553 20.3211C15.2454 20.1493 15.2653 19.9492 15.211 19.763C15.0236 19.2006 14.7013 18.6926 14.2723 18.2835C13.8433 17.8744 13.3207 17.5765 12.75 17.416V16.25H16C16.5549 16.2501 17.0968 16.0824 17.5546 15.7688C18.0124 15.4552 18.3646 15.0105 18.565 14.493C18.6291 14.4174 18.6786 14.3306 18.711 14.237L19.577 11.642C19.651 11.418 19.675 11.347 19.727 11.238C19.7616 11.1613 19.801 11.0868 19.845 11.015C20.017 10.733 20.177 10.578 20.426 10.468C20.711 10.342 21.173 10.25 22 10.25C22.1989 10.25 22.3897 10.171 22.5303 10.0303C22.671 9.88968 22.75 9.69891 22.75 9.5C22.75 9.30109 22.671 9.11032 22.5303 8.96967C22.3897 8.82902 22.1989 8.75 22 8.75C21.095 8.75 20.387 8.845 19.82 9.095C19.22 9.36 18.848 9.767 18.563 10.235C18.4884 10.3542 18.4222 10.4785 18.365 10.607C18.2859 10.7839 18.2171 10.9652 18.159 11.15L17.88 11.987C17.6129 11.8312 17.3092 11.7494 17 11.75H12.75V10H13.491C15.594 10 16.645 10 17.241 9.327C17.839 8.655 17.713 7.611 17.463 5.523L17.372 4.766C17.131 2.754 17.01 1.749 16.428 1.062C16.2434 0.843912 16.0285 0.65332 15.79 0.496C15.04 5.96046e-08 14.026 0 12 0C9.974 0 8.961 5.96046e-08 8.21 0.496C7.97146 0.65332 7.75663 0.843912 7.572 1.062Z" fill="#475467"/>
</g>
<defs>
<filter id="filter0_d_6532_27701" x="-2.75" y="0" width="29.5" height="28.75" filterUnits="userSpaceOnUse" color-interpolation-filters="sRGB">
<feFlood flood-opacity="0" result="BackgroundImageFix"/>
<feColorMatrix in="SourceAlpha" type="matrix" values="0 0 0 0 0 0 0 0 0 0 0 0 0 0 0 0 0 0 127 0" result="hardAlpha"/>
<feOffset dy="4"/>
<feGaussianBlur stdDeviation="2"/>
<feComposite in2="hardAlpha" operator="out"/>
<feColorMatrix type="matrix" values="0 0 0 0 0 0 0 0 0 0 0 0 0 0 0 0 0 0 0.25 0"/>
<feBlend mode="normal" in2="BackgroundImageFix" result="effect1_dropShadow_6532_27701"/>
<feBlend mode="normal" in="SourceGraphic" in2="effect1_dropShadow_6532_27701" result="shape"/>
</filter>
</defs>
</svg>
