<svg width="50" height="44" viewBox="0 0 50 44" fill="none" xmlns="http://www.w3.org/2000/svg">
<path d="M0.515161 43.9725C0.693032 44.0184 0.882003 43.993 1.04111 43.9019C1.20022 43.8108 1.31665 43.6613 1.36516 43.4857C2.79572 38.2016 8.6096 36.8321 12.0846 36.0126C12.9554 35.8078 13.6429 35.6455 14.0902 35.4544C18.0485 33.7535 19.3388 31.0172 19.7249 29.0207C19.7478 28.902 19.7387 28.7793 19.6985 28.6651C19.6583 28.5509 19.5883 28.4492 19.4957 28.3704C17.4346 26.609 15.6957 23.9649 14.5985 20.9234C14.5673 20.8363 14.5186 20.7563 14.4554 20.6882C13.004 19.1262 12.1707 17.4749 12.1707 16.159C12.1707 15.3904 12.4638 14.8748 13.1235 14.4856C13.2223 14.4271 13.3049 14.3453 13.3638 14.2473C13.4227 14.1494 13.4561 14.0385 13.461 13.9246C13.7679 6.92037 18.8068 1.40662 24.9874 1.37088L25.136 1.3805C31.3471 1.46575 36.3541 7.09775 36.5332 14.201C36.5359 14.2981 36.5593 14.3935 36.6019 14.4809C36.6445 14.5684 36.7054 14.6459 36.7804 14.7084C37.2152 15.0727 37.4179 15.5347 37.4179 16.1617C37.4179 17.2631 36.8249 18.6175 35.7499 19.9732C35.6981 20.0381 35.6586 20.1117 35.6332 20.1905C34.5221 23.6775 32.5277 26.7561 30.1638 28.6399C30.0656 28.718 29.9908 28.821 29.9472 28.938C29.9037 29.055 29.8931 29.1815 29.9166 29.304C30.3027 31.2991 31.5929 34.034 35.5513 35.7376C36.0193 35.9384 36.7457 36.0951 37.6666 36.2917C41.1068 37.0287 46.8638 38.2649 48.2763 43.4857C48.3 43.573 48.3408 43.6547 48.3964 43.7263C48.452 43.7979 48.5214 43.8579 48.6004 43.903C48.6795 43.9481 48.7667 43.9773 48.8572 43.989C48.9477 44.0007 49.0396 43.9946 49.1277 43.9711C49.2158 43.9477 49.2983 43.9072 49.3706 43.8522C49.443 43.7971 49.5036 43.7285 49.5491 43.6502C49.5947 43.5719 49.6242 43.4856 49.636 43.396C49.6478 43.3064 49.6417 43.2155 49.6179 43.1283C47.986 37.0961 41.4638 35.6978 37.961 34.947C37.1485 34.7724 36.4471 34.6225 36.1054 34.474C33.5221 33.363 31.9304 31.6704 31.3679 29.4346C33.7666 27.3955 35.7735 24.2495 36.9207 20.7212C38.1388 19.1537 38.8082 17.5395 38.8082 16.1604C38.8082 15.2405 38.5082 14.4733 37.9138 13.8738C37.5832 6.16825 32.029 0.100375 25.136 0.00275L24.9291 0C18.161 0.03575 12.5832 5.94413 12.0957 13.5162C11.2263 14.1488 10.7846 15.0356 10.7846 16.1617C10.7846 17.7884 11.7138 19.734 13.3402 21.5187C14.4638 24.5754 16.2054 27.2607 18.2791 29.1404C17.7193 31.3844 16.1263 33.0825 13.5374 34.1949C13.2027 34.3392 12.536 34.4974 11.7638 34.6789C8.2346 35.5094 1.66794 37.0563 0.0234939 43.131C-0.0239971 43.3071 0.00111986 43.4947 0.0933213 43.6525C0.185523 43.8103 0.337259 43.9254 0.515161 43.9725Z" fill="#475467"/>
</svg>
