<svg width="50" height="38" viewBox="0 0 50 38" fill="none" xmlns="http://www.w3.org/2000/svg">
<mask id="path-1-inside-1_2026_239428" fill="white">
<path d="M45.166 10.5469C45.8984 10.9538 46.5658 11.4502 47.168 12.0361C47.7702 12.6221 48.2747 13.2731 48.6816 13.9893C49.0885 14.7054 49.4141 15.4622 49.6582 16.2598C49.9023 17.0573 50.0163 17.8874 50 18.75H46.875C46.875 17.9036 46.7122 17.098 46.3867 16.333C46.0612 15.568 45.6136 14.9089 45.0439 14.3555C44.4743 13.8021 43.807 13.3545 43.042 13.0127C42.277 12.6709 41.4714 12.5 40.625 12.5C39.7624 12.5 38.9567 12.6628 38.208 12.9883C37.4593 13.3138 36.8001 13.7614 36.2305 14.3311C35.6608 14.9007 35.2132 15.568 34.8877 16.333C34.5622 17.098 34.3913 17.9036 34.375 18.75C34.375 20.2311 34.0413 21.639 33.374 22.9736C32.7067 24.3083 31.7708 25.415 30.5664 26.2939C31.6243 26.8311 32.5765 27.4902 33.4229 28.2715C34.2692 29.0527 35.0016 29.9316 35.6201 30.9082C36.2386 31.8848 36.7025 32.9264 37.0117 34.0332C37.321 35.14 37.4837 36.2956 37.5 37.5H34.375C34.375 36.2142 34.1309 35.0016 33.6426 33.8623C33.1543 32.723 32.4788 31.7301 31.6162 30.8838C30.7536 30.0374 29.7607 29.3701 28.6377 28.8818C27.5146 28.3936 26.3021 28.1413 25 28.125C23.7142 28.125 22.5016 28.3691 21.3623 28.8574C20.223 29.3457 19.2301 30.0212 18.3838 30.8838C17.5374 31.7464 16.8701 32.7393 16.3818 33.8623C15.8936 34.9854 15.6413 36.1979 15.625 37.5H12.5C12.5 36.3118 12.6628 35.1644 12.9883 34.0576C13.3138 32.9508 13.7777 31.9092 14.3799 30.9326C14.9821 29.9561 15.7064 29.0771 16.5527 28.2959C17.3991 27.5146 18.3594 26.8473 19.4336 26.2939C18.2454 25.415 17.3177 24.3083 16.6504 22.9736C15.9831 21.639 15.6413 20.2311 15.625 18.75C15.625 17.9036 15.4622 17.098 15.1367 16.333C14.8112 15.568 14.3636 14.9089 13.7939 14.3555C13.2243 13.8021 12.557 13.3545 11.792 13.0127C11.027 12.6709 10.2214 12.5 9.375 12.5C8.51237 12.5 7.70671 12.6628 6.95801 12.9883C6.20931 13.3138 5.55013 13.7614 4.98047 14.3311C4.41081 14.9007 3.96322 15.568 3.6377 16.333C3.31217 17.098 3.14128 17.9036 3.125 18.75H0C0 17.9036 0.113932 17.0817 0.341797 16.2842C0.569661 15.4867 0.887044 14.7298 1.29395 14.0137C1.70085 13.2975 2.21354 12.6465 2.83203 12.0605C3.45052 11.4746 4.11784 10.9701 4.83398 10.5469C4.29688 9.97721 3.88184 9.31803 3.58887 8.56934C3.2959 7.82064 3.14128 7.04753 3.125 6.25C3.125 5.40365 3.28776 4.59798 3.61328 3.83301C3.9388 3.06803 4.38639 2.40885 4.95605 1.85547C5.52572 1.30208 6.1849 0.854492 6.93359 0.512695C7.68229 0.170898 8.49609 0 9.375 0C10.2214 0 11.027 0.16276 11.792 0.488281C12.557 0.813802 13.2161 1.26139 13.7695 1.83105C14.3229 2.40072 14.7705 3.06803 15.1123 3.83301C15.4541 4.59798 15.625 5.40365 15.625 6.25C15.625 7.04753 15.4785 7.82064 15.1855 8.56934C14.8926 9.31803 14.4694 9.97721 13.916 10.5469C15.2507 11.2793 16.3411 12.2884 17.1875 13.5742C18.0664 12.2721 19.1895 11.2467 20.5566 10.498C21.9238 9.74935 23.4049 9.375 25 9.375C26.5788 9.375 28.0518 9.74935 29.4189 10.498C30.7861 11.2467 31.9173 12.2721 32.8125 13.5742C33.6589 12.2884 34.7493 11.2793 36.084 10.5469C35.5469 9.97721 35.1318 9.31803 34.8389 8.56934C34.5459 7.82064 34.3913 7.04753 34.375 6.25C34.375 5.40365 34.5378 4.59798 34.8633 3.83301C35.1888 3.06803 35.6364 2.40885 36.2061 1.85547C36.7757 1.30208 37.4349 0.854492 38.1836 0.512695C38.9323 0.170898 39.7461 0 40.625 0C41.4714 0 42.277 0.16276 43.042 0.488281C43.807 0.813802 44.4661 1.26139 45.0195 1.83105C45.5729 2.40072 46.0205 3.06803 46.3623 3.83301C46.7041 4.59798 46.875 5.40365 46.875 6.25C46.875 7.04753 46.7285 7.82064 46.4355 8.56934C46.1426 9.31803 45.7194 9.97721 45.166 10.5469ZM6.25 6.25C6.25 6.68945 6.33138 7.09635 6.49414 7.4707C6.6569 7.84505 6.87663 8.17057 7.15332 8.44727C7.43001 8.72396 7.76367 8.95182 8.1543 9.13086C8.54492 9.3099 8.95182 9.39128 9.375 9.375C9.81445 9.375 10.2214 9.29362 10.5957 9.13086C10.9701 8.9681 11.2956 8.74837 11.5723 8.47168C11.849 8.19499 12.0768 7.86133 12.2559 7.4707C12.4349 7.08008 12.5163 6.67318 12.5 6.25C12.5 5.81055 12.4186 5.40365 12.2559 5.0293C12.0931 4.65495 11.8734 4.32943 11.5967 4.05273C11.32 3.77604 10.9863 3.54818 10.5957 3.36914C10.2051 3.1901 9.79818 3.10872 9.375 3.125C8.93555 3.125 8.52865 3.20638 8.1543 3.36914C7.77995 3.5319 7.45443 3.75163 7.17773 4.02832C6.90104 4.30501 6.67318 4.63867 6.49414 5.0293C6.3151 5.41992 6.23372 5.82682 6.25 6.25ZM25 25C25.8464 25 26.652 24.8372 27.417 24.5117C28.182 24.1862 28.8411 23.7386 29.3945 23.1689C29.9479 22.5993 30.3955 21.9401 30.7373 21.1914C31.0791 20.4427 31.25 19.6289 31.25 18.75C31.25 17.9036 31.0872 17.098 30.7617 16.333C30.4362 15.568 29.9886 14.9089 29.4189 14.3555C28.8493 13.8021 28.182 13.3545 27.417 13.0127C26.652 12.6709 25.8464 12.5 25 12.5C24.1374 12.5 23.3317 12.6628 22.583 12.9883C21.8343 13.3138 21.1751 13.7614 20.6055 14.3311C20.0358 14.9007 19.5882 15.568 19.2627 16.333C18.9372 17.098 18.7663 17.9036 18.75 18.75C18.75 19.6126 18.9128 20.4183 19.2383 21.167C19.5638 21.9157 20.0114 22.5749 20.5811 23.1445C21.1507 23.7142 21.8099 24.1618 22.5586 24.4873C23.3073 24.8128 24.1211 24.9837 25 25ZM37.5 6.25C37.5 6.68945 37.5814 7.09635 37.7441 7.4707C37.9069 7.84505 38.1266 8.17057 38.4033 8.44727C38.68 8.72396 39.0137 8.95182 39.4043 9.13086C39.7949 9.3099 40.2018 9.39128 40.625 9.375C41.0645 9.375 41.4714 9.29362 41.8457 9.13086C42.2201 8.9681 42.5456 8.74837 42.8223 8.47168C43.099 8.19499 43.3268 7.86133 43.5059 7.4707C43.6849 7.08008 43.7663 6.67318 43.75 6.25C43.75 5.81055 43.6686 5.40365 43.5059 5.0293C43.3431 4.65495 43.1234 4.32943 42.8467 4.05273C42.57 3.77604 42.2363 3.54818 41.8457 3.36914C41.4551 3.1901 41.0482 3.10872 40.625 3.125C40.1855 3.125 39.7786 3.20638 39.4043 3.36914C39.0299 3.5319 38.7044 3.75163 38.4277 4.02832C38.151 4.30501 37.9232 4.63867 37.7441 5.0293C37.5651 5.41992 37.4837 5.82682 37.5 6.25Z"/>
</mask>
<path d="M45.166 10.5469C45.8984 10.9538 46.5658 11.4502 47.168 12.0361C47.7702 12.6221 48.2747 13.2731 48.6816 13.9893C49.0885 14.7054 49.4141 15.4622 49.6582 16.2598C49.9023 17.0573 50.0163 17.8874 50 18.75H46.875C46.875 17.9036 46.7122 17.098 46.3867 16.333C46.0612 15.568 45.6136 14.9089 45.0439 14.3555C44.4743 13.8021 43.807 13.3545 43.042 13.0127C42.277 12.6709 41.4714 12.5 40.625 12.5C39.7624 12.5 38.9567 12.6628 38.208 12.9883C37.4593 13.3138 36.8001 13.7614 36.2305 14.3311C35.6608 14.9007 35.2132 15.568 34.8877 16.333C34.5622 17.098 34.3913 17.9036 34.375 18.75C34.375 20.2311 34.0413 21.639 33.374 22.9736C32.7067 24.3083 31.7708 25.415 30.5664 26.2939C31.6243 26.8311 32.5765 27.4902 33.4229 28.2715C34.2692 29.0527 35.0016 29.9316 35.6201 30.9082C36.2386 31.8848 36.7025 32.9264 37.0117 34.0332C37.321 35.14 37.4837 36.2956 37.5 37.5H34.375C34.375 36.2142 34.1309 35.0016 33.6426 33.8623C33.1543 32.723 32.4788 31.7301 31.6162 30.8838C30.7536 30.0374 29.7607 29.3701 28.6377 28.8818C27.5146 28.3936 26.3021 28.1413 25 28.125C23.7142 28.125 22.5016 28.3691 21.3623 28.8574C20.223 29.3457 19.2301 30.0212 18.3838 30.8838C17.5374 31.7464 16.8701 32.7393 16.3818 33.8623C15.8936 34.9854 15.6413 36.1979 15.625 37.5H12.5C12.5 36.3118 12.6628 35.1644 12.9883 34.0576C13.3138 32.9508 13.7777 31.9092 14.3799 30.9326C14.9821 29.9561 15.7064 29.0771 16.5527 28.2959C17.3991 27.5146 18.3594 26.8473 19.4336 26.2939C18.2454 25.415 17.3177 24.3083 16.6504 22.9736C15.9831 21.639 15.6413 20.2311 15.625 18.75C15.625 17.9036 15.4622 17.098 15.1367 16.333C14.8112 15.568 14.3636 14.9089 13.7939 14.3555C13.2243 13.8021 12.557 13.3545 11.792 13.0127C11.027 12.6709 10.2214 12.5 9.375 12.5C8.51237 12.5 7.70671 12.6628 6.95801 12.9883C6.20931 13.3138 5.55013 13.7614 4.98047 14.3311C4.41081 14.9007 3.96322 15.568 3.6377 16.333C3.31217 17.098 3.14128 17.9036 3.125 18.75H0C0 17.9036 0.113932 17.0817 0.341797 16.2842C0.569661 15.4867 0.887044 14.7298 1.29395 14.0137C1.70085 13.2975 2.21354 12.6465 2.83203 12.0605C3.45052 11.4746 4.11784 10.9701 4.83398 10.5469C4.29688 9.97721 3.88184 9.31803 3.58887 8.56934C3.2959 7.82064 3.14128 7.04753 3.125 6.25C3.125 5.40365 3.28776 4.59798 3.61328 3.83301C3.9388 3.06803 4.38639 2.40885 4.95605 1.85547C5.52572 1.30208 6.1849 0.854492 6.93359 0.512695C7.68229 0.170898 8.49609 0 9.375 0C10.2214 0 11.027 0.16276 11.792 0.488281C12.557 0.813802 13.2161 1.26139 13.7695 1.83105C14.3229 2.40072 14.7705 3.06803 15.1123 3.83301C15.4541 4.59798 15.625 5.40365 15.625 6.25C15.625 7.04753 15.4785 7.82064 15.1855 8.56934C14.8926 9.31803 14.4694 9.97721 13.916 10.5469C15.2507 11.2793 16.3411 12.2884 17.1875 13.5742C18.0664 12.2721 19.1895 11.2467 20.5566 10.498C21.9238 9.74935 23.4049 9.375 25 9.375C26.5788 9.375 28.0518 9.74935 29.4189 10.498C30.7861 11.2467 31.9173 12.2721 32.8125 13.5742C33.6589 12.2884 34.7493 11.2793 36.084 10.5469C35.5469 9.97721 35.1318 9.31803 34.8389 8.56934C34.5459 7.82064 34.3913 7.04753 34.375 6.25C34.375 5.40365 34.5378 4.59798 34.8633 3.83301C35.1888 3.06803 35.6364 2.40885 36.2061 1.85547C36.7757 1.30208 37.4349 0.854492 38.1836 0.512695C38.9323 0.170898 39.7461 0 40.625 0C41.4714 0 42.277 0.16276 43.042 0.488281C43.807 0.813802 44.4661 1.26139 45.0195 1.83105C45.5729 2.40072 46.0205 3.06803 46.3623 3.83301C46.7041 4.59798 46.875 5.40365 46.875 6.25C46.875 7.04753 46.7285 7.82064 46.4355 8.56934C46.1426 9.31803 45.7194 9.97721 45.166 10.5469ZM6.25 6.25C6.25 6.68945 6.33138 7.09635 6.49414 7.4707C6.6569 7.84505 6.87663 8.17057 7.15332 8.44727C7.43001 8.72396 7.76367 8.95182 8.1543 9.13086C8.54492 9.3099 8.95182 9.39128 9.375 9.375C9.81445 9.375 10.2214 9.29362 10.5957 9.13086C10.9701 8.9681 11.2956 8.74837 11.5723 8.47168C11.849 8.19499 12.0768 7.86133 12.2559 7.4707C12.4349 7.08008 12.5163 6.67318 12.5 6.25C12.5 5.81055 12.4186 5.40365 12.2559 5.0293C12.0931 4.65495 11.8734 4.32943 11.5967 4.05273C11.32 3.77604 10.9863 3.54818 10.5957 3.36914C10.2051 3.1901 9.79818 3.10872 9.375 3.125C8.93555 3.125 8.52865 3.20638 8.1543 3.36914C7.77995 3.5319 7.45443 3.75163 7.17773 4.02832C6.90104 4.30501 6.67318 4.63867 6.49414 5.0293C6.3151 5.41992 6.23372 5.82682 6.25 6.25ZM25 25C25.8464 25 26.652 24.8372 27.417 24.5117C28.182 24.1862 28.8411 23.7386 29.3945 23.1689C29.9479 22.5993 30.3955 21.9401 30.7373 21.1914C31.0791 20.4427 31.25 19.6289 31.25 18.75C31.25 17.9036 31.0872 17.098 30.7617 16.333C30.4362 15.568 29.9886 14.9089 29.4189 14.3555C28.8493 13.8021 28.182 13.3545 27.417 13.0127C26.652 12.6709 25.8464 12.5 25 12.5C24.1374 12.5 23.3317 12.6628 22.583 12.9883C21.8343 13.3138 21.1751 13.7614 20.6055 14.3311C20.0358 14.9007 19.5882 15.568 19.2627 16.333C18.9372 17.098 18.7663 17.9036 18.75 18.75C18.75 19.6126 18.9128 20.4183 19.2383 21.167C19.5638 21.9157 20.0114 22.5749 20.5811 23.1445C21.1507 23.7142 21.8099 24.1618 22.5586 24.4873C23.3073 24.8128 24.1211 24.9837 25 25ZM37.5 6.25C37.5 6.68945 37.5814 7.09635 37.7441 7.4707C37.9069 7.84505 38.1266 8.17057 38.4033 8.44727C38.68 8.72396 39.0137 8.95182 39.4043 9.13086C39.7949 9.3099 40.2018 9.39128 40.625 9.375C41.0645 9.375 41.4714 9.29362 41.8457 9.13086C42.2201 8.9681 42.5456 8.74837 42.8223 8.47168C43.099 8.19499 43.3268 7.86133 43.5059 7.4707C43.6849 7.08008 43.7663 6.67318 43.75 6.25C43.75 5.81055 43.6686 5.40365 43.5059 5.0293C43.3431 4.65495 43.1234 4.32943 42.8467 4.05273C42.57 3.77604 42.2363 3.54818 41.8457 3.36914C41.4551 3.1901 41.0482 3.10872 40.625 3.125C40.1855 3.125 39.7786 3.20638 39.4043 3.36914C39.0299 3.5319 38.7044 3.75163 38.4277 4.02832C38.151 4.30501 37.9232 4.63867 37.7441 5.0293C37.5651 5.41992 37.4837 5.82682 37.5 6.25Z" fill="#475467" stroke="#F9FAFB" stroke-width="2" mask="url(#path-1-inside-1_2026_239428)"/>
</svg>
