<svg width="364" height="413" viewBox="0 0 364 413" fill="none" xmlns="http://www.w3.org/2000/svg">
<g opacity="0.1">
<path fill-rule="evenodd" clip-rule="evenodd" d="M123.395 374.811C131.395 256.54 251.98 158.138 413.467 138.106C277.375 168.723 187.295 262.11 194.653 364.966C202.01 467.822 304.928 553.967 444.655 574.198L380.144 630.717L159.03 498.916C133.376 461.392 120.392 418.926 123.395 374.811Z" fill="#21B8BF"/>
<path fill-rule="evenodd" clip-rule="evenodd" d="M283.516 351.733C263.713 268.154 314.85 184.085 413.465 138.105C341.85 190.812 315.572 267.485 344.839 338.234C374.107 408.983 454.328 462.619 554.194 478.228L504.366 521.882C390.213 502.257 303.305 435.303 283.516 351.733Z" fill="#21B8BF"/>
</g>
</svg>
