<svg width="323" height="469" viewBox="0 0 323 469" fill="none" xmlns="http://www.w3.org/2000/svg">
<g opacity="0.1">
<path fill-rule="evenodd" clip-rule="evenodd" d="M198.855 374.811C190.855 256.54 70.2697 158.138 -91.2167 138.106C44.8754 168.723 134.955 262.11 127.597 364.966C120.24 467.822 17.3221 553.967 -122.405 574.198L-57.8937 630.717L163.22 498.916C188.874 461.392 201.858 418.926 198.855 374.811Z" fill="#66C68F"/>
<path fill-rule="evenodd" clip-rule="evenodd" d="M38.7339 351.733C58.5374 268.154 7.40048 184.085 -91.215 138.105C-19.6004 190.812 6.67816 267.485 -22.5892 338.234C-51.8566 408.983 -132.078 462.619 -231.944 478.228L-182.116 521.882C-67.9634 502.257 18.9449 435.303 38.7339 351.733Z" fill="#66C68F"/>
</g>
</svg>
